<svg xmlns="http://www.w3.org/2000/svg" width="47.918" height="50.962" viewBox="0 0 47.918 50.962">
  <g id="그룹_6962" data-name="그룹 6962" transform="translate(-26.143 -441.466)">
    <g id="그룹_211" data-name="그룹 211" transform="translate(-8544 -2139)">
      <path id="패스_236" data-name="패스 236" d="M8594.1,2631.428a14.067,14.067,0,0,1-7.038-1.88l-9.882-5.7a14.117,14.117,0,0,1-7.039-12.192v-11.409a14.117,14.117,0,0,1,7.039-12.192l9.882-5.705a14.117,14.117,0,0,1,14.077,0l9.882,5.705a14.115,14.115,0,0,1,7.038,12.192v11.409a14.115,14.115,0,0,1-7.038,12.192l-9.882,5.705A14.075,14.075,0,0,1,8594.1,2631.428Zm0-47.083a10.2,10.2,0,0,0-5.1,1.362l-9.88,5.7a10.224,10.224,0,0,0-5.1,8.832v11.409a10.223,10.223,0,0,0,5.1,8.832l9.88,5.7a10.227,10.227,0,0,0,10.2,0l9.882-5.705a10.226,10.226,0,0,0,5.1-8.831v-11.409a10.229,10.229,0,0,0-5.1-8.832l-9.882-5.7A10.2,10.2,0,0,0,8594.1,2584.345Z" fill="#0075be"/>
    </g>
    <path id="패스_237" data-name="패스 237" d="M8585.834,2619.526h-2.516v-28.26h14.847a9.412,9.412,0,0,1,9.447,9.446,9.266,9.266,0,0,1-9.265,9.084l9.266,9.73h-12.549a3.76,3.76,0,0,1-3.761-3.759V2605.65a8.939,8.939,0,0,0,7.044-8.755h0a8.755,8.755,0,0,0-8.755,8.755v10.117A3.759,3.759,0,0,1,8585.834,2619.526Z" transform="translate(-8544 -2139)" fill="#0075be"/>
  </g>
</svg>
