<svg xmlns="http://www.w3.org/2000/svg" xmlns:xlink="http://www.w3.org/1999/xlink" width="145.793" height="143.111" viewBox="0 0 145.793 143.111">
  <defs>
    <clipPath id="clip-path">
      <rect id="사각형_2052" data-name="사각형 2052" width="129.183" height="132.34"/>
    </clipPath>
  </defs>
  <g id="그룹_6960" data-name="그룹 6960" transform="translate(-117.207 -308.832)">
    <g id="그룹_3391" data-name="그룹 3391" transform="translate(133.816 308.832)" clip-path="url(#clip-path)">
      <path id="패스_2364" data-name="패스 2364" d="M265.615,44.473l8.168-4.73a.513.513,0,0,0,0-.9l-8.168-4.73a4.343,4.343,0,0,1-1.99-2.585h0a4.4,4.4,0,0,1,.414-3.231l4.73-8.168a.514.514,0,0,0-.465-.775h-9.434a4.2,4.2,0,0,1-3-1.241h0a4.247,4.247,0,0,1-1.241-3V5.7a.527.527,0,0,0-.775-.465l-8.168,4.73a4.163,4.163,0,0,1-3.231.414h0a4.248,4.248,0,0,1-2.585-1.99l-4.7-8.168a.513.513,0,0,0-.9,0l-4.73,8.168a4.343,4.343,0,0,1-2.585,1.99h0a4.4,4.4,0,0,1-3.231-.414l-8.168-4.73a.514.514,0,0,0-.775.465v9.434a4.2,4.2,0,0,1-1.241,3h0a4.247,4.247,0,0,1-3,1.241H201.1a.527.527,0,0,0-.465.775l4.73,8.168a4.163,4.163,0,0,1,.414,3.231h0a4.248,4.248,0,0,1-1.99,2.585l-8.168,4.73a.513.513,0,0,0,0,.9l8.168,4.73a4.343,4.343,0,0,1,1.99,2.585h0a4.4,4.4,0,0,1-.414,3.231l-4.73,8.168a.514.514,0,0,0,.465.775h9.408a4.2,4.2,0,0,1,3,1.241h0a4.247,4.247,0,0,1,1.241,3v9.434a.527.527,0,0,0,.775.465l8.168-4.73a4.163,4.163,0,0,1,3.231-.414h0a4.248,4.248,0,0,1,2.585,1.99l4.73,8.168a.513.513,0,0,0,.9,0l4.73-8.168a4.343,4.343,0,0,1,2.585-1.99h0a4.4,4.4,0,0,1,3.231.414l8.168,4.73a.514.514,0,0,0,.775-.465V63.5a4.2,4.2,0,0,1,1.241-3h0a4.247,4.247,0,0,1,3-1.241H268.3a.527.527,0,0,0,.465-.775l-4.73-8.168a4.164,4.164,0,0,1-.414-3.231h0a4.322,4.322,0,0,1,1.99-2.611Z" transform="translate(-144.858 0.037)" fill="#feec86"/>
    </g>
    <path id="패스_2365" data-name="패스 2365" d="M307.7,90.676v-.1c0-.31,0-.62-.026-.931,0-.129-.026-.258-.026-.388-.026-.207-.026-.439-.052-.646-.026-.129-.026-.284-.052-.414-.026-.207-.052-.388-.078-.595-.026-.155-.052-.284-.078-.439-.026-.181-.078-.388-.1-.569-.026-.155-.052-.284-.078-.439-.052-.181-.077-.388-.129-.569-.026-.129-.078-.284-.1-.414-.052-.181-.1-.388-.155-.569-.052-.129-.078-.258-.129-.388a5.4,5.4,0,0,0-.207-.594c-.052-.1-.078-.233-.129-.336-.1-.31-.233-.594-.362-.9a3.043,3.043,0,0,0-.129-.284c-.078-.207-.181-.388-.258-.595-.078-.129-.129-.284-.207-.414l-.233-.465c-.078-.155-.155-.284-.233-.439-.078-.129-.155-.258-.233-.414a2.563,2.563,0,0,0-.284-.439c-.078-.129-.155-.233-.233-.362l-.31-.465a2.16,2.16,0,0,1-.207-.31c-.129-.155-.233-.336-.362-.491-.052-.078-.129-.155-.181-.233-.129-.181-.284-.362-.414-.517v-.026h0a21.354,21.354,0,0,0-36.677,20.29h0c.052.129.1.284.155.414.078.233.181.491.258.724a3.989,3.989,0,0,0,.207.491c.052.155.129.284.181.439a3.351,3.351,0,0,0,.207.439c.078.155.129.284.207.414a3.352,3.352,0,0,1,.207.439c.078.129.129.258.207.414s.181.31.258.465c.1.155.181.31.284.465l.388.62c.078.1.155.233.233.336.1.155.207.284.31.414.078.1.181.233.258.336.1.129.207.284.31.414.078.1.181.207.258.31.129.155.258.31.388.439.078.078.155.181.233.258.207.233.413.439.62.646l.233.233c.155.129.284.284.439.414.1.078.181.181.284.258.155.129.284.258.439.388.1.078.181.155.284.233.181.129.336.284.517.414a1.421,1.421,0,0,1,.233.181c.258.181.491.362.75.543.078.052.129.078.207.129.207.129.388.258.594.388a1.739,1.739,0,0,1,.284.181l.543.31c.1.052.181.1.284.155.207.1.414.207.62.336a1.528,1.528,0,0,1,.207.1c.284.129.569.258.879.388.026.026.078.026.1.052l.775.31a1.08,1.08,0,0,1,.258.1c.233.078.439.155.672.233.1.026.181.052.284.078.233.078.491.129.724.207a.8.8,0,0,0,.207.052q.969.233,1.939.388c.078,0,.155.026.233.026.259.026.517.078.75.1.1,0,.181.026.284.026a7.83,7.83,0,0,0,.8.052.715.715,0,0,1,.233.026c.336.026.7.026,1.034.026a21.337,21.337,0,0,0,19.023-11.683A20.811,20.811,0,0,0,307.7,90.676Z" transform="translate(-62.688 257.447)" fill="#ffb82c"/>
    <path id="패스_1796" data-name="패스 1796" d="M63.839,83.8H39.8V46.3H63.839Z" transform="translate(122.752 351.383)" fill="#dbdbdb"/>
    <path id="패스_1797" data-name="패스 1797" d="M57.306,0H11.051L0,59.388H114.726L103.675,0Z" transform="translate(117.207 344.906)" fill="#ebebeb"/>
    <path id="패스_1798" data-name="패스 1798" d="M56.665,3.1H14.4L4.6,55.535H108.844L99.047,3.1Z" transform="translate(117.85 345.338)" fill="#004b72"/>
    <path id="패스_1799" data-name="패스 1799" d="M34.406,3.1,28.273,55.535H31.2L37.141,3.1Z" transform="translate(123.361 345.338)" fill="#fff"/>
    <path id="패스_5286" data-name="패스 5286" d="M31.008,3.1l6.133,52.433H34.213L28.273,3.1Z" transform="translate(157.623 345.338)" fill="#fff"/>
    <path id="패스_1801" data-name="패스 1801" d="M103.986,18.336H8.4V15.6h95.586Z" transform="translate(118.379 347.088)" fill="#fff"/>
    <path id="패스_1802" data-name="패스 1802" d="M106.543,36.836H6.4V34.1H106.543Z" transform="translate(118.098 349.676)" fill="#fff"/>
    <path id="패스_1803" data-name="패스 1803" d="M77.775,95.956H28.9V79.2H77.775Z" transform="translate(121.234 355.986)" fill="#777"/>
  </g>
</svg>
