<svg xmlns="http://www.w3.org/2000/svg" width="44" height="44" viewBox="0 0 44 44">
  <g id="그룹_6957" data-name="그룹 6957" transform="translate(-25 -647)">
    <g id="그룹_6894" data-name="그룹 6894" transform="translate(-1 50.928)">
      <circle id="타원_945" data-name="타원 945" cx="22" cy="22" r="22" transform="translate(26 596.072)" fill="#ffb82c"/>
      <path id="패스_6097" data-name="패스 6097" d="M1.7,7.537a1.645,1.645,0,0,0,.679.146,1.635,1.635,0,0,0,.263-.027L5.069,14.12a12.809,12.809,0,0,1,13.261,0l2.423-6.465a1.641,1.641,0,1,0,.264-3.261h0a1.645,1.645,0,0,0-1.648,1.642v0a1.608,1.608,0,0,0,.151.678L17.044,8.2a1.094,1.094,0,0,1-1.5-.374L15.527,7.8,12.732,2.919a1.644,1.644,0,1,0-2.076,0L7.861,7.8a1.1,1.1,0,0,1-1.493.413L6.344,8.2,3.88,6.717a1.644,1.644,0,1,0-2.176.82" transform="translate(36.628 602.56)" fill="#fff"/>
      <g id="그룹_8068_1_" transform="translate(36.546 619.366)">
        <path id="패스_1797_1_" d="M95.357,42.8H86.189L84,54.567h22.742L104.553,42.8Z" transform="translate(-84 -42.8)" fill="#ebebeb"/>
        <path id="패스_1798_1_" d="M101.712,47.7H93.335L91.4,58.1h20.666L110.13,47.7Z" transform="translate(-90.355 -47.008)" fill="#004b72"/>
        <path id="패스_1799_1_" d="M133.515,47.7,132.3,58.1h.579l1.172-10.4Z" transform="translate(-125.477 -47.008)" fill="#fff"/>
        <path id="패스_5286_1_" d="M180.937,47.7l1.215,10.4h-.579L180.4,47.7Z" transform="translate(-166.783 -47.008)" fill="#fff"/>
        <path id="패스_1801_1_" d="M116.356,68.337H97.4V67.8h18.942v.537Z" transform="translate(-95.507 -64.269)" fill="#fff"/>
        <path id="패스_1802_1_" d="M114.06,97.937H94.2V97.4h19.846v.537Z" transform="translate(-92.759 -89.687)" fill="#fff"/>
      </g>
    </g>
  </g>
</svg>
