<svg xmlns="http://www.w3.org/2000/svg" width="146.699" height="147.424" viewBox="0 0 146.699 147.424">
  <g id="그룹_6858" data-name="그룹 6858" transform="translate(-100 -219.319)">
    <path id="패스_7932" data-name="패스 7932" d="M0,0H8.044V16.085H0Z" transform="matrix(0.866, -0.5, 0.5, 0.866, 134.99, 249.852)" fill="#b8e62e"/>
    <path id="패스_7933" data-name="패스 7933" d="M0,0H8.044V16.085H0Z" transform="matrix(0.5, -0.866, 0.866, 0.5, 118.733, 279.204)" fill="#f9b"/>
    <path id="패스_7934" data-name="패스 7934" d="M0,0H16.085V8.044H0Z" transform="matrix(0.5, -0.866, 0.866, 0.5, 196.704, 255.416)" fill="#96cc29"/>
    <path id="패스_7935" data-name="패스 7935" d="M0,0H16.085V8.044H0Z" transform="matrix(0.866, -0.5, 0.5, 0.866, 209.282, 280.269)" fill="#f69"/>
    <path id="패스_7936" data-name="패스 7936" d="M404.63,37.867l-6.555-4.662,2.333-3.275c1.308-1.842,1.158-3.138.691-5.883-.518-3.059-1.225-7.25,2.066-11.888S410.65,6.814,413.709,6.3c2.749-.467,4.022-.75,5.329-2.592L422.06,0l6.559,4.658-3.021,3.7c-3.295,4.638-7.485,5.345-10.545,5.863-2.749.467-4.022.75-5.329,2.592s-1.158,3.138-.7,5.887c.519,3.059,1.229,7.25-2.07,11.884Z" transform="translate(-181.92 219.319)" fill="#96cc29"/>
    <path id="패스_7937" data-name="패스 7937" d="M24.13,37.785l-2.345-3.268c-3.315-4.622-2.627-8.817-2.121-11.876.452-2.753.6-4.045-.719-5.887s-2.588-2.109-5.341-2.564c-3.063-.5-7.258-1.19-10.572-5.812L0,4.689,6.535,0,9.568,3.688c1.32,1.838,2.588,2.113,5.341,2.568,3.063.5,7.258,1.19,10.572,5.812s2.623,8.817,2.121,11.876c-.456,2.753-.6,4.045.719,5.883L30.666,33.1Z" transform="translate(100 223.671)" fill="#b8e62e"/>
    <path id="패스_7938" data-name="패스 7938" d="M245.022,60H241V76.086h8.043V60Z" transform="translate(-72.036 185.56)" fill="#f9b"/>
    <path id="패스_7939" data-name="패스 7939" d="M256,60h4.022V76.086H256Z" transform="translate(-83.013 185.56)" fill="#f69"/>
    <path id="패스_7942" data-name="패스 7942" d="M-18118.082-15135.184l12.291-3.389,2.7.795,8.742,8.318.637,2.967-2.545,11.547-2.436,2.385-9.855,3.07-3.336-.369-9.322-7.734-1.484-4.449,2.119-9.535Z" transform="translate(18299.547 15415.208)" fill="#fff"/>
    <g id="그룹_5" data-name="그룹 5" transform="translate(180.442 272.368) rotate(13)">
      <path id="패스_7" data-name="패스 7" d="M14.9,31.7a8.742,8.742,0,0,1-4.377-1.17L4.377,26.981A8.778,8.778,0,0,1,0,19.4V12.3A8.778,8.778,0,0,1,4.377,4.718L10.522,1.17a8.769,8.769,0,0,1,8.754,0l6.145,3.548A8.778,8.778,0,0,1,29.8,12.3v7.1a8.778,8.778,0,0,1-4.377,7.584l-6.145,3.548A8.742,8.742,0,0,1,14.9,31.7Zm0-29.286a6.3,6.3,0,0,0-3.17.847L5.584,6.809A6.359,6.359,0,0,0,2.414,12.3v7.1a6.352,6.352,0,0,0,3.17,5.493l6.145,3.548a6.374,6.374,0,0,0,6.346,0L24.22,24.89A6.359,6.359,0,0,0,27.39,19.4V12.3a6.352,6.352,0,0,0-3.17-5.493L18.069,3.261A6.3,6.3,0,0,0,14.9,2.414Z" transform="translate(0 0)" fill="#0098ff"/>
    </g>
    <path id="패스_8" data-name="패스 8" d="M1.561,17.581H0V0H9.236a5.856,5.856,0,0,1,5.877,5.877,5.761,5.761,0,0,1-5.761,5.651l5.761,6.053H7.3A2.342,2.342,0,0,1,4.962,15.24V8.949A5.562,5.562,0,0,0,9.345,3.505h0A5.445,5.445,0,0,0,3.9,8.949V15.24A2.341,2.341,0,0,1,1.561,17.581Z" transform="translate(186.915 280.758) rotate(13)" fill="#0098ff"/>
    <path id="패스_7942-2" data-name="패스 7942" d="M7.8,5.737,28.611,0l4.573,1.342,14.8,14.082,1.077,5.024L44.75,40l-4.122,4.036-16.683,5.2-5.65-.626L2.513,35.516,0,27.981,3.589,11.838Z" transform="matrix(0.961, -0.276, 0.276, 0.961, 146.719, 251.407)" fill="#fff"/>
    <g id="그룹_5-2" data-name="그룹 5" transform="translate(150.566 242.787) rotate(-3)">
      <path id="패스_7-2" data-name="패스 7" d="M25.223,53.666a14.8,14.8,0,0,1-7.41-1.982L7.41,45.678A14.861,14.861,0,0,1,0,32.84V20.827A14.861,14.861,0,0,1,7.41,7.988l10.4-6.007a14.846,14.846,0,0,1,14.82,0l10.4,6.007a14.861,14.861,0,0,1,7.41,12.839V32.84a14.861,14.861,0,0,1-7.41,12.839l-10.4,6.007A14.8,14.8,0,0,1,25.223,53.666Zm0-49.579a10.674,10.674,0,0,0-5.367,1.435l-10.4,6.007a10.766,10.766,0,0,0-5.367,9.3V32.84a10.753,10.753,0,0,0,5.367,9.3l10.4,6.007a10.792,10.792,0,0,0,10.744,0L41,42.138a10.765,10.765,0,0,0,5.367-9.3V20.827A10.753,10.753,0,0,0,41,11.528L30.59,5.521A10.674,10.674,0,0,0,25.223,4.087Z" transform="translate(0 0)" fill="#0098ff"/>
    </g>
    <path id="패스_8-2" data-name="패스 8" d="M2.642,29.764H0V0H15.635a9.915,9.915,0,0,1,9.949,9.949,9.754,9.754,0,0,1-9.753,9.567l9.753,10.248H12.364A3.964,3.964,0,0,1,8.4,25.8V15.15a9.416,9.416,0,0,0,7.42-9.216h0A9.219,9.219,0,0,0,6.605,15.15V25.8A3.964,3.964,0,0,1,2.642,29.764Z" transform="translate(165.013 253.42) rotate(-3)" fill="#0098ff"/>
    <path id="패스_7942-3" data-name="패스 7942" d="M7.38,5.426,27.058,0l4.327,1.27,14,13.318L46.4,19.339l-4.077,18.49-3.9,3.818L22.647,46.564,17.3,45.972,2.377,33.59,0,26.464,3.394,11.2Z" transform="translate(122.228 299.04) rotate(-43)" fill="#fff"/>
    <g id="그룹_5-3" data-name="그룹 5" transform="matrix(0.866, -0.5, 0.5, 0.866, 121.769, 290.124)">
      <path id="패스_7-3" data-name="패스 7" d="M23.855,50.756a14,14,0,0,1-7.008-1.874L7.008,43.2A14.055,14.055,0,0,1,0,31.059V19.7A14.055,14.055,0,0,1,7.008,7.555l9.839-5.681a14.041,14.041,0,0,1,14.016,0L40.7,7.555A14.055,14.055,0,0,1,47.711,19.7V31.059A14.056,14.056,0,0,1,40.7,43.2l-9.839,5.681A14,14,0,0,1,23.855,50.756Zm0-46.891A10.1,10.1,0,0,0,18.78,5.222L8.941,10.9A10.182,10.182,0,0,0,3.865,19.7V31.059a10.17,10.17,0,0,0,5.076,8.794l9.839,5.681a10.207,10.207,0,0,0,10.161,0l9.839-5.681a10.182,10.182,0,0,0,5.076-8.794V19.7A10.17,10.17,0,0,0,38.78,10.9L28.931,5.222A10.1,10.1,0,0,0,23.855,3.865Z" transform="translate(0 0)" fill="#0098ff"/>
    </g>
    <path id="패스_8-3" data-name="패스 8" d="M2.5,28.15H0V0H14.788A9.377,9.377,0,0,1,24.2,9.409a9.225,9.225,0,0,1-9.224,9.048L24.2,28.15h-12.5A3.749,3.749,0,0,1,7.945,24.4V14.329a8.906,8.906,0,0,0,7.018-8.716h0a8.719,8.719,0,0,0-8.716,8.716V24.4A3.749,3.749,0,0,1,2.5,28.15Z" transform="matrix(0.866, -0.5, 0.5, 0.866, 138.508, 292.881)" fill="#0098ff"/>
    <path id="패스_7942-4" data-name="패스 7942" d="M5.112,3.759,18.741,0l3,.88L31.43,10.1l.7,3.293L29.311,26.2l-2.7,2.644L15.684,32.249l-3.7-.41L1.646,23.264,0,18.329,2.35,7.755Z" transform="translate(180.048 274.789) rotate(7)" fill="#fff"/>
    <g id="그룹_5-4" data-name="그룹 5" transform="translate(184.574 270.577) rotate(20)">
      <path id="패스_7-4" data-name="패스 7" d="M16.521,35.152a9.693,9.693,0,0,1-4.854-1.3L4.854,29.919A9.734,9.734,0,0,1,0,21.51V13.642A9.734,9.734,0,0,1,4.854,5.232L11.668,1.3a9.724,9.724,0,0,1,9.707,0l6.814,3.934a9.734,9.734,0,0,1,4.854,8.409V21.51a9.734,9.734,0,0,1-4.854,8.409l-6.814,3.934A9.693,9.693,0,0,1,16.521,35.152Zm0-32.475a6.991,6.991,0,0,0-3.515.94L6.192,7.551a7.051,7.051,0,0,0-3.515,6.091V21.51A7.043,7.043,0,0,0,6.192,27.6l6.814,3.934a7.069,7.069,0,0,0,7.037,0L26.857,27.6a7.051,7.051,0,0,0,3.515-6.091V13.642a7.043,7.043,0,0,0-3.515-6.091L20.036,3.617A6.991,6.991,0,0,0,16.521,2.677Z" transform="translate(0 0)" fill="#0098ff"/>
    </g>
    <path id="패스_8-4" data-name="패스 8" d="M1.731,19.5H0V0H10.241a6.494,6.494,0,0,1,6.517,6.517,6.389,6.389,0,0,1-6.388,6.266L16.758,19.5H8.1a2.6,2.6,0,0,1-2.6-2.6V9.924a6.168,6.168,0,0,0,4.86-6.037h0A6.038,6.038,0,0,0,4.326,9.924V16.9A2.6,2.6,0,0,1,1.731,19.5Z" transform="translate(190.563 280.685) rotate(20)" fill="#0098ff"/>
    <path id="패스_7940" data-name="패스 7940" d="M131.857,213.9l-16.815,15.042H22.227L5.412,213.9,0,219.85l16.354,14.622v59.347h104.56V234.472l16.354-14.622Z" transform="translate(104.353 72.924)" fill="#fcc557"/>
    <path id="패스_7941" data-name="패스 7941" d="M308.28,234.472l16.354-14.622-5.412-5.954-16.815,15.042H256v64.881h52.28Z" transform="translate(-83.013 72.924)" fill="#72c0e2"/>
  </g>
</svg>
