<svg xmlns="http://www.w3.org/2000/svg" width="66.499" height="13.539" viewBox="0 0 66.499 13.539">
  <g id="그룹_6867" data-name="그룹 6867" transform="translate(-201 -673)">
    <path id="패스_5407" data-name="패스 5407" d="M85.532,31.27h0a1.143,1.143,0,0,1-1.143,1.143H78.83a1.7,1.7,0,0,0-1.3.436,1.567,1.567,0,0,0-.407,1.114,1.917,1.917,0,0,0,.087.571,1.214,1.214,0,0,0,.31.5,1.5,1.5,0,0,0,.591.349,2.976,2.976,0,0,0,.949.126h3.061a6,6,0,0,1,2.189.339,3.57,3.57,0,0,1,1.346.881,2.931,2.931,0,0,1,.678,1.24,5.447,5.447,0,0,1,.184,1.395,4.81,4.81,0,0,1-.232,1.53,3.11,3.11,0,0,1-.736,1.211,3.459,3.459,0,0,1-1.288.8,5.522,5.522,0,0,1-1.908.29h-6.14a1.143,1.143,0,0,1-1.143-1.143h0a1.143,1.143,0,0,1,1.143-1.143h6.217a1.815,1.815,0,0,0,1.366-.455,1.624,1.624,0,0,0,.435-1.172,1.978,1.978,0,0,0-.1-.61,1.247,1.247,0,0,0-.329-.523,1.689,1.689,0,0,0-.63-.358,3.133,3.133,0,0,0-1-.136H79.14a5.926,5.926,0,0,1-2.15-.329,3.318,3.318,0,0,1-1.307-.872,3.037,3.037,0,0,1-.659-1.22,5.154,5.154,0,0,1-.184-1.356,4.846,4.846,0,0,1,.223-1.5,3,3,0,0,1,.717-1.191,3.346,3.346,0,0,1,1.268-.784,5.475,5.475,0,0,1,1.86-.281h5.481A1.143,1.143,0,0,1,85.532,31.27Z" transform="translate(126.16 643.105)" fill="#0098ff"/>
    <path id="패스_5408" data-name="패스 5408" d="M105.64,30.127a1.124,1.124,0,0,1,1.123,1.123v7.612a2.1,2.1,0,0,0,.513,1.52,2.217,2.217,0,0,0,1.656.532h2.324a2.193,2.193,0,0,0,1.627-.532,2.08,2.08,0,0,0,.523-1.52V31.25a1.124,1.124,0,0,1,1.123-1.123h0a1.123,1.123,0,0,1,1.123,1.123v7.787a4.186,4.186,0,0,1-1.065,3.118,4.36,4.36,0,0,1-3.176,1.046h-2.751q-4.223,0-4.223-4.164V31.25a1.123,1.123,0,0,1,1.123-1.123Z" transform="translate(110.1 643.105)" fill="#0098ff"/>
    <path id="패스_5409" data-name="패스 5409" d="M135.477,42.926h0a1.143,1.143,0,0,1-1.143-1.143V32.466a2.892,2.892,0,0,1,.736-2.063,3.636,3.636,0,0,1,4.329-.135,4.377,4.377,0,0,1,1.114,1.772l3.816,8.349a1.142,1.142,0,0,0,.31.387.813.813,0,0,0,.523.155.775.775,0,0,0,.571-.2.721.721,0,0,0,.2-.533v-9.2a1.143,1.143,0,0,1,1.143-1.143h.019a1.143,1.143,0,0,1,1.143,1.143v9.3a2.9,2.9,0,0,1-.746,2.082,2.974,2.974,0,0,1-2.257.784,3.9,3.9,0,0,1-1.191-.165,2.576,2.576,0,0,1-.891-.484,3.1,3.1,0,0,1-.649-.765,5.166,5.166,0,0,1-.465-1.007l-3.816-8.349a.845.845,0,0,0-.813-.562.8.8,0,0,0-.591.2.747.747,0,0,0-.2.552v9.2A1.143,1.143,0,0,1,135.477,42.926Z" transform="translate(93.881 643.381)" fill="#0098ff"/>
    <path id="패스_5410" data-name="패스 5410" d="M176.021,30.127a5.713,5.713,0,0,1,4.387,1.608,7.031,7.031,0,0,1,1.5,4.939,7,7,0,0,1-1.5,4.92,5.711,5.711,0,0,1-4.387,1.608h-4.61a.95.95,0,0,1-1.085-1.065V31.192a.95.95,0,0,1,1.085-1.065Zm-3.409,10.557q0,.233.252.232h3.157a3.412,3.412,0,0,0,2.751-1.007,5.009,5.009,0,0,0,.852-3.254,5.011,5.011,0,0,0-.843-3.245,3.427,3.427,0,0,0-2.76-1h-3.157q-.252,0-.252.232Z" transform="translate(74.352 643.105)" fill="#0098ff"/>
    <path id="패스_5411" data-name="패스 5411" d="M198.686,30.624l3.336,5.1,3.374-5.106a1.1,1.1,0,0,1,.915-.492h0a1.1,1.1,0,0,1,.9,1.731l-4.042,5.707v4.484a1.153,1.153,0,0,1-1.153,1.153h0a1.152,1.152,0,0,1-1.152-1.153V37.565l-4.042-5.707a1.1,1.1,0,0,1,.9-1.731h.055A1.1,1.1,0,0,1,198.686,30.624Z" transform="translate(60.088 643.105)" fill="#0098ff"/>
  </g>
</svg>
