<svg xmlns="http://www.w3.org/2000/svg" width="90.164" height="18.639" viewBox="0 0 90.164 18.639">
  <g id="그룹_6866" data-name="그룹 6866" transform="translate(-26.962 -675.182)">
    <path id="패스_2332" data-name="패스 2332" d="M6650.247-6406.322l-7.58,7.58a3.928,3.928,0,0,1-5.554,0h0a3.927,3.927,0,0,1,0-5.554l7.58-7.581,2.251,2.251-7.58,7.581a.744.744,0,0,0,0,1.051h0a.745.745,0,0,0,1.051,0l7.58-7.581Zm1.136,1.135-5.512,5.512a1.592,1.592,0,0,0,0,2.251h0a1.592,1.592,0,0,0,2.251,0l5.512-5.512Zm-6.98,11.483a1.592,1.592,0,0,0,0-2.251,1.592,1.592,0,0,0-2.251,0,1.592,1.592,0,0,0,0,2.251A1.592,1.592,0,0,0,6644.4-6393.7Z" transform="translate(-6609 7087.058)" fill="#2b6fd4"/>
    <path id="패스_2333" data-name="패스 2333" d="M6665.646-6407.06h7.775v1.907h-5.48v2.653h4.766v1.924h-4.766v3.071h5.65v1.923h-7.945Z" transform="translate(-6616.617 7085.822)" fill="#2b6fd4"/>
    <path id="패스_2334" data-name="패스 2334" d="M6678.168-6407.06h2.136l4.519,7.653v-7.653h2.125v11.478h-2.125l-4.519-7.669v7.669h-2.136Z" transform="translate(-6619.83 7085.822)" fill="#2b6fd4"/>
    <path id="패스_2335" data-name="패스 2335" d="M6691.964-6407.06h7.775v1.907h-5.479v2.653h4.766v1.924h-4.766v3.071h5.649v1.923h-7.945Z" transform="translate(-6623.369 7085.822)" fill="#2b6fd4"/>
    <path id="패스_2336" data-name="패스 2336" d="M6710.609-6395.582l-2.358-4.343h-1.6v4.343h-2.3v-11.478h4c2.4,0,4.313.837,4.313,3.475a3.287,3.287,0,0,1-2.188,3.3l2.685,4.7Zm-3.957-6.157h1.49c1.474,0,2.28-.621,2.28-1.846,0-1.242-.807-1.66-2.28-1.66h-1.49Z" transform="translate(-6626.549 7085.822)" fill="#2b6fd4"/>
    <path id="패스_2337" data-name="패스 2337" d="M6717.486-6407.06h3.149c3.506,0,5.677,1.814,5.677,5.692,0,3.863-2.171,5.786-5.553,5.786h-3.273Zm3.01,9.632c2.141,0,3.475-1.148,3.475-3.94,0-2.808-1.333-3.862-3.475-3.862h-.714v7.8Z" transform="translate(-6629.918 7085.822)" fill="#2b6fd4"/>
    <path id="패스_2338" data-name="패스 2338" d="M6731.064-6401.443c0-3.738,2.094-5.91,5.136-5.91s5.134,2.187,5.134,5.91-2.094,6-5.134,6S6731.064-6397.72,6731.064-6401.443Zm7.927,0c0-2.466-1.086-3.94-2.792-3.94s-2.793,1.474-2.793,3.94c0,2.451,1.086,4.018,2.793,4.018S6738.991-6398.992,6738.991-6401.443Z" transform="translate(-6633.402 7085.897)" fill="#2b6fd4"/>
    <path id="패스_2339" data-name="패스 2339" d="M6748.663-6405.153h-3.226v-1.907h8.78v1.907h-3.258v9.571h-2.3Z" transform="translate(-6637.09 7085.822)" fill="#2b6fd4"/>
  </g>
</svg>
