<svg xmlns="http://www.w3.org/2000/svg" width="159.127" height="283.089" viewBox="0 0 159.127 283.089">
  <g id="region_plant_map" data-name="region_plant_map" transform="translate(160.12 1670.878)">
    <path id="jeju" data-name="jeju" d="M-1275.041,1608.57c-2.4-1.423-4.984-2.069-7.681-.645h0c-3.585,1.227-7.191,2.384-10.875,3.284a1.74,1.74,0,0,0-1.3.687,2.493,2.493,0,0,0-1.732,1.265h0a13.525,13.525,0,0,0-4.881,3.315,1.331,1.331,0,0,0-1.007.664h0c-.917.65-1.864,1.262-2.742,1.963a2.028,2.028,0,0,0-.718,2.021c.146.6.917.663,1.534.627a2.809,2.809,0,0,1,1.935.706,3.427,3.427,0,0,0,4.64,1.471,7.482,7.482,0,0,1,5.766.064,4.033,4.033,0,0,0,3.2.042,27.86,27.86,0,0,0,4.915-2.2h0c1.243-.109,2.044-1.222,3.245-1.429.631-.171,1.264-.335,1.893-.512.984-.277,2.019-.728,2.164-1.774a13.223,13.223,0,0,1,1.6-3.875C-1273.2,1612.539-1273.092,1609.725-1275.041,1608.57Z" transform="translate(1145.914 -3012.135)" fill="#628ced"/>
    <path id="jeonnam" data-name="jeonnam" d="M-263.863,481.559a5.546,5.546,0,0,0-1.386-1.449,3.423,3.423,0,0,0-.234-.631,5.922,5.922,0,0,1-.541-.593,12.842,12.842,0,0,1-.691-3.762,6.581,6.581,0,0,0-2.746-4.936,1.478,1.478,0,0,0-.2-.379.9.9,0,0,1-.248-.024c.038-.007.073-.011.116-.02.142-.523-.166-.8-.549-1.029a1.622,1.622,0,0,0-.123-.161l-.344-.843c-.018-.566.111-1.166-.407-1.613-1.03-.474-2.06.175-3.091,0a4.665,4.665,0,0,1,.492.082l-.176.015a.572.572,0,0,1-.317-.1,3.668,3.668,0,0,1-.751-.325c-3.057-1.934-3.065-1.923-5.209.834-.751.6-1.812.15-2.572.719-1.283-.057-2.6-.023-3.384-1.3-1-1.731-1.575-1.923-3.089-1.031h0c-1.889.137-3.7-.41-5.552-.585-.373-.41-1.082-.233-1.395-.748.048-.469.27-.956-.153-1.376-.032-.5-.037-1-.105-1.5-.109-.8-.5-.547-.9-.2-.139.1-.274.2-.416.289-2.073,1.3-2.624,1.2-3.992-.82-.454-.671-.878-.556-1.376-.105l-5.616.206c-.6.779-.224,1.656-.269,2.49a5.334,5.334,0,0,1-2.5,2.262h0l-2,.09a5.2,5.2,0,0,0-2.815-.671,3.942,3.942,0,0,1-2.967-2.652c-.447,1.29-1.031,2.093-.574,3.081-.133.433-.291.868.09,1.267l1.352,2.03.556,1.072q.054.946.108,1.891c.041.053.07.1.1.155a.7.7,0,0,1-.1-.155c-1.683,1.571-2.07,1.554-3.868-.164-1.587-1.517-2.49-1.586-3.619-.043a7.767,7.767,0,0,0-1.583,2.5l-.58.013a1.984,1.984,0,0,0-3.12-.2c-.82.87,0,1.469.392,2.12,1.4,2.3,1.292,2.753-.3,5.02-.576.817-1.519,1.32-1.872,2.281l-1.148,1.314c-1.175,1.31-2.423,2.579-2.725,4.4l0,.009v0l0,.007v-.021c0,.013.006.027.01.04l-.01-.019v.01l0-.014c-.518,1.884-.077,3.838-.454,5.74-.139.7.475.875,1.135.932a7.3,7.3,0,0,1,5.912,3.447c.27,1.845.564,3.756-1.239,5.052a15.3,15.3,0,0,0-4.331,4.358h0c-.414.413-1.506.9-.953,1.29.865.619,1.315,2.516,3.06,1.423l.012-.01a2.9,2.9,0,0,1,1.566-1.277c1.1-.667,2.428-.647,3.605-1.083l.037-.019h0a6.154,6.154,0,0,0,3.021-.4c2.409-.828,5.483-.872,6.069-4.238.131-.748.877-.372,1.29-.291a6.008,6.008,0,0,1,3.547,2.618.807.807,0,0,1,.094,1.016h0c-.675,1.549,1.178,1.262,1.573,2.034.885.728,1.9.233,2.86.293h0a3.046,3.046,0,0,0,2.139-.2l3.078-.131c.8-.263,1.686.148,2.459-.308h0l0,0,.006,0h0c1.055.113,2.017-.757,3.152-.2.41.2.52-.362.688-.716.959-2.02,1.135-4.57,3.83-5.444l.643-.1a1,1,0,0,0,.636-.655l2.958-4.311a24.35,24.35,0,0,1,4.541-2.562c.835-.44,1.453,3.013.948,4.213l-1.057,1.365c1.767.568,3.558.682,5.107,1.553.417.235.922-.075,1.194-.47a13.023,13.023,0,0,1,5.335-4.318c.665-.317,1.055-.922.213-1.558l-1.144-2.3q-.151-.85-.3-1.7a.461.461,0,0,1-.044-.2,1.934,1.934,0,0,0,.044.2c1.424-2.3,3.964-3.393,5.965-5.068.686-.573,1.422-.187,1.592.722.3,1.607.821,3.211-.163,4.815-.337.548-.972,1.3-.182,1.91.744.577,1.628,1.075,2.615.347.621-.189.613-.884,1.048-1.221l1.318-.107c.9-.064,2.186.521,2.435-.852a12.743,12.743,0,0,0,.308-4.576C-260.114,487.184-262.083,482.8-263.863,481.559Zm-44.889-18.875h-.012v-.006Zm0-2.013h.068c-.011.024-.026.048-.037.072-.011-.025-.019-.049-.032-.072Zm-.01,2.013v.017a.383.383,0,0,0-.038-.018Zm25.925,4.666Z" transform="translate(179.843 -1943.729)" fill="#d9e7f1"/>
    <path id="jeonbuk" data-name="jeonbuk" d="M-253.119,418.81l.068-.627c.865-.882.482-1.849.2-2.808h0l-.468-1.05h0c-.339-.267.468-1.472-.832-.955a16.42,16.42,0,0,1-4.556-.325l-2.005-.907c-1.326-.968-1.355-.523-1.851-.256-.4.469-.941.84-1.029,1.506h0a5.221,5.221,0,0,1-2.031,1.864c-1.555.5-1.838.288-3.316.059-.061.012-6.156-2.258-6.743-2.959-.338-.53-.077-1.03-.417-2.985.1-.748-.4-.931-1.008-1.02-.735-.1-1.5-.394-2.119.294h0c-1.808,1.853-4.319,2.11-6.666,2.693a1.644,1.644,0,0,1-1.976-.651,8.606,8.606,0,0,0-.01-.992c-.07-.578.329-1.376-.8-1.465-1.148-.089-1.273.615-1.336,1.426l-1.41.511h0l-2.526,1.074a.886.886,0,0,0-.25.107c-1.491-.111-3.024.4-4.474-.292a1.013,1.013,0,0,0-1.3.952c-.078.747-.54,1.34-.645,2.052h0l-.71,1.316c-.43.48-.671.938.12,1.321.971.47,1.936.952,2.9,1.43h0l2.075,2.007q-.03,1.176-.059,2.35h0l-1.332,1.057c-.777.422-1.8-.109-2.5.6-.568-.005-1.181-.089-1.292.7-.615.281-.3.843-.416,1.279l-1.1,1.369h0a.254.254,0,0,0-.232.076c-1.224.6-2.885.752-2.85,2.631h0l.011,0c-.194.435-1.127,1.074.317,1.058.48.539,1.245.271,1.8.6a1.382,1.382,0,0,1,1.007.491q-.06,1.11-.121,2.22h0l-1.247,1.373c-.535.245-1.252.268-1.357,1.041-.048.256-.074.523-.37.647-.843.092-.842.8-1.044,1.354a2.854,2.854,0,0,0-.589,1.713h0c-.562.534-1.126,1.067-1.685,1.6-1.882,1.8-1.882,1.8-.206,3.9.21.5.674.442,1.1.48h0a.661.661,0,0,0,.714.1,5.1,5.1,0,0,0,2.026.4c1.232.889,1.721-.331,2.468-.817.8-.972.219-2.248.765-3.276h0l1.334-.714,2.077.088c1.97.342,3.925-.633,5.9-.059.063.593-.044,1.493.568,1.591a1.791,1.791,0,0,0,1.951-.91l-.035.006c.828-.584,1.788-.252,2.685-.361q.076.175.151.351c.612.815-.149,1.917.6,2.7.029.253,0,.534.345.626.778.815,1.806.724,2.809.725h0l-.05.006h0a1.739,1.739,0,0,0,2.172-.006h0a7.736,7.736,0,0,1,2.3-.327c.3.314.531.722,1.072.668.722.549.931,1.548,1.822,1.95h0c.449.255.887.725,1.389.075.6-.144,1.316.3,1.808-.353h0a.249.249,0,0,0,.241-.109,1.813,1.813,0,0,0,.749-1.334h0l1.07-.848,2.337,0a4.185,4.185,0,0,0,2.095,1.262h0a1.524,1.524,0,0,0,2.126.3c.875.092.627-.519.644-.965-.586-.74-.226-1.554-.2-2.342h0c.638-.414,1.362-.772,1.22-1.708a3.587,3.587,0,0,0-.04-2.35v0A2.369,2.369,0,0,0-264.9,438.6c.056-.448-.032-.812-.436-.988a1.639,1.639,0,0,0-.075-.351c-.066-.126-.126-.252-.181-.378l-.119-2.372a3.037,3.037,0,0,1,.291-.547,2.063,2.063,0,0,0,.157-.449c0-.04,0-.081-.006-.122a6.231,6.231,0,0,0,2-3.479,5.449,5.449,0,0,0,.19-1.97,4.289,4.289,0,0,1,2.331-2.086,2.29,2.29,0,0,0,1.4-.442c.272.081.539.137.746-.13a2.268,2.268,0,0,0,1.642-.83h0a3.521,3.521,0,0,0,.644-2.468,3.976,3.976,0,0,1,.3-.406,4.066,4.066,0,0,1,.473-.707.88.88,0,0,1,.259-.219l1.2-.293h0l.28-.223C-252.633,420.163-253.186,419.335-253.119,418.81Zm-52.336,11.438c0-.025-.006-.048-.01-.072.016.029.028.057.047.088Zm45.705-5.411c.007-.016.013-.031.019-.046,0,.016.012.03.016.046Zm4.642-6.913a.3.3,0,0,0,.013-.032c.016.007.03.015.046.021Zm1.556-3.723.229.124A.453.453,0,0,1-253.552,414.2Z" transform="translate(172.187 -1927.454)" fill="#dbdbdb" fill-rule="evenodd"/>
    <path id="seoul" data-name="seoul" d="M-255.544,287.769c-.035-.209-.071-.419-.1-.629-.09-.245-.175-.491-.252-.738q0-.751.008-1.5c.029,0,.054-.048.074-.137a2.91,2.91,0,0,0,.337-2.746c-.008-.157-.014-.314-.013-.471a1.983,1.983,0,0,0-.934-1.436c-.149-.1-.3-.192-.452-.276-.641-1.058-1.6-1.317-2.96-.636a5.794,5.794,0,0,1-.952.289l.228.1a.412.412,0,0,1-.228-.1c-2.177.682-3.135.289-4.234-1.738.015-.113.03-.227.045-.34-.423-1.145.039-2.357-.255-3.514a.969.969,0,0,0,.4-.157c1.085-1.309-.094-2.3-.515-3.4a3.164,3.164,0,0,1,.006-2.445,1.994,1.994,0,0,0,.141-1.173c.008-.34.022-.681.037-1.021a.763.763,0,0,1,.148-.092c.459-1.057.123-2.157.183-3.235a.739.739,0,0,0-.138-.155c.116-.082.135-.185.029-.311l-.014-.023c-.479-.559.064-1.317-.323-1.895a.666.666,0,0,0,.054-.09.271.271,0,0,0-.165-.311l-2.569-1.756a1.513,1.513,0,0,1-.021-.231,1.476,1.476,0,0,0-.2-1.42c.217-1.216-.516-1.45-1.532-1.391-.7-.5-1.5-.27-2.269-.277-.112-.09-.221-.184-.324-.285a3.611,3.611,0,0,0-.341-.31,2.089,2.089,0,0,1-.25-.172c-.394-.791-.483-1.76-1.36-2.271h0a1.055,1.055,0,0,0-.378-.271c-.018-.008-.037-.014-.056-.021A3.785,3.785,0,0,0-277,250.1a1.655,1.655,0,0,1-.056-.19,5.766,5.766,0,0,1-2.874-2.989,2.86,2.86,0,0,0-1.21-.652c-.38.013-.757-.046-1.134-.019-1.074-.018-2.206.436-3.192-.35a2.18,2.18,0,0,0-.366-.3,1.114,1.114,0,0,0-.706-.063l-.07.04a8.3,8.3,0,0,0-1.937-1.559c-.585-.442-.837-.217-1.049.215a1.773,1.773,0,0,0-.232.007c-1.019.785-1.1,2.113-1.865,3.043a3.779,3.779,0,0,1-.245.366,1.317,1.317,0,0,0-.883.4h0c-.92.1-1.8.546-2.763.284l-.464.4-.46.334h0c-.66-.5-1.261-.168-1.865.123.006.031.007.064.011.1l-.011-.1c-.835-.167-1.7.126-2.541-.234a.622.622,0,0,0-.894.513c-.061,1.283-1.156,2.143-1.367,3.351-.777.988-1.575,1.916-3.086,1.6-3.023-.638-4.067.161-4.069,3.09,0,.05,0,.1.007.15-.048.18-.1.357-.16.528-.036.163-.073.329-.1.493-.04.509-.062,1.018-.077,1.526-.081.955-.075,1.923-.224,2.87a1.292,1.292,0,0,0,.444,1.077c.008.018.013.037.023.055.039.064.081.126.122.189a.981.981,0,0,0,.21,1.143l0,0,.4.445h0c.617.66-.512,1.912.838,2.322.147.335.409.573.239,1.055-.391,1.12-.284,2.351-1.2,3.365-.529.586,1.407,3.112,2.723,3.706,1.1,1.489,3.085,1.927,4.26,3.329h0a2.791,2.791,0,0,1,.919,2.944,4.233,4.233,0,0,1-3.99.654c-1.13-.252-2.022-.217-2.347,1.081-.379,1.658.162,2.492,1.927,2.337a7.137,7.137,0,0,1,6.148,2.252,27.34,27.34,0,0,0,3.176,3.166h0a1.011,1.011,0,0,0,.66.857c1.237,2.767.686,3.776-2.328,4.261-.112.018-.233-.006-.344.016-1.764.344-1.834.523-.8,2.033a1.933,1.933,0,0,0,1.441.9h0l1.029.4q.678.843,1.357,1.687h0l1.142,3.032a1.622,1.622,0,0,0,.57,1.381l-.02-.01a4.656,4.656,0,0,0,.748,2.525v0c-.589.212-.2.488-.052.748-.243.694.394.839.767,1.15a.181.181,0,0,1-.1-.156c.034.055.07.108.1.156l.293.271c1.064.937,2.133.374,3.2.009h0l1.706-.067h0a14.4,14.4,0,0,1,5.927,0h0a2.9,2.9,0,0,1,2.749,1.419h0c.785,1.313,2.175,1.33,3.481,1.528.205-.434.767-.647.792-1.193a11.968,11.968,0,0,1,3.762-3.731h0a1.344,1.344,0,0,0,.343-.023,1.58,1.58,0,0,0,1.467-.625h0c.123-.111.247-.222.371-.332,1.57-1,3.624-1.462,4.186-3.588.05-.192.416-.3.634-.455l2.416-.08h0l.687-.295c1.065-.123,1.367-1.094,2.007-1.691a4.013,4.013,0,0,1,.75-2.067,1.691,1.691,0,0,1,.126-.146,1.662,1.662,0,0,0,.194-.406c.006-.023.008-.046.013-.068a1.112,1.112,0,0,0,.067-.835,3.441,3.441,0,0,0-.051-.437,1.54,1.54,0,0,0-.17-.4v0c1.046-1.471.543-3.1.488-4.69q.036-.418.073-.836l.03.011a.741.741,0,0,0,.787-.372,1.19,1.19,0,0,1,.013-.152,1.179,1.179,0,0,0,.57-.626C-254.661,290.123-255.077,288.946-255.544,287.769ZM-275.4,312.806l0,0h0l0,0Zm15.322-32.98a.119.119,0,0,1,0-.027h0Z" transform="translate(172.231 -1875.407)" fill="#9cc9eb" fill-rule="evenodd"/>
    <path id="chungnam" data-name="chungnam" d="M-265.849,387.8c-.361-.509.122-1.2-.334-1.685,0-.069,0-.139,0-.207a3.93,3.93,0,0,0-1.424-3.039,1.809,1.809,0,0,1-.272-.061c.007-.845-.6-1.387-1.108-1.983h0a3.136,3.136,0,0,0-1.879-1.193c-.545-.358-2.077-.957-1.915-2.371q.212-.814.423-1.627c.186-.207.366-.424.546-.642,1-.595,2.046-1.165,1.162-2.562l-.147-.073a11.334,11.334,0,0,0-3.368-3.16c-1.2-.1-1.371-1.676-1.487-2.732a.781.781,0,0,0-.31-1.115c-.011-.036-.022-.071-.035-.107a2.859,2.859,0,0,0-1.418-1.122,2.087,2.087,0,0,1-.413-.221,10.632,10.632,0,0,0-.459-2.007,4.765,4.765,0,0,1-.063-5.072,4.7,4.7,0,0,1,.923-.707,10.519,10.519,0,0,0,3.262-2.318,2.567,2.567,0,0,0-.126-2.467,8.144,8.144,0,0,0-2.583-2.253,9.273,9.273,0,0,1-2.572-3.015,13.341,13.341,0,0,0-2.6-1.222h0a3.74,3.74,0,0,0-1.812-1.658h0l-.019.025h0c-.437-.7-1.136-.252-1.707-.364h0a5.9,5.9,0,0,0-4.279,0h0l-.955.038c-1.98.113-4,.83-5.894-.359-.633-1.192-1.859-.767-2.85-.981a3.418,3.418,0,0,0-4.148-1.153,2.823,2.823,0,0,1-2.161-.182.35.35,0,0,0-.089-.081c-1.654-1.53-3.027-1.694-4.727-.567-2.554.946-3.908,3.136-5.551,5.026-.2.386-.852.188-.969.69h0c-.435.411-1.286.229-1.484.979-2.312,1.269-2.711,2.531-1.436,4.546-.446.514.5.96.078,1.473.712.813.339,1.985.995,2.818.131.675-.271,1.425.3,2.039h0a2.739,2.739,0,0,0,2.067,2.381,12.26,12.26,0,0,1,5.274,3.316,6.5,6.5,0,0,0,2.076,2.616h0l.043.025c2.648,1.695,3.961,3.93,3.063,7.07a2.914,2.914,0,0,0-.032.668h0a2.285,2.285,0,0,0-.636,1.241,1.6,1.6,0,0,0-.606,2.483,7.453,7.453,0,0,0,1.288,2.122h0a20.552,20.552,0,0,1,1.176,4,5.871,5.871,0,0,0,1.054,3.294l.965,1.391h0c2.759.461,5.548,1.156,7.968-.977h0a1.383,1.383,0,0,0,1.063-.746,2.018,2.018,0,0,0,1.107-1.3c1.157.072,2.488-.707,3.381.651-.017.663-.043,1.326-.046,1.989a.684.684,0,0,0,.511.759c.794.217,4.305-1.253,4.877-2.048h0a.6.6,0,0,0,.695-.327l.971-.746,2.738.027a5.248,5.248,0,0,1,2.064,1.452v0a20.378,20.378,0,0,0,.176,2.942,1.265,1.265,0,0,0,1,.873,28.579,28.579,0,0,1,2.772.855c4.536,1.623,4.661,1.589,7.244-2.329a.8.8,0,0,0,.763-.757A.211.211,0,0,1-265.849,387.8Z" transform="translate(175.16 -1905.491)" fill="#abc7db" fill-rule="evenodd"/>
    <path id="gangwon" data-name="gangwon" d="M-181.776,282.457c.074-.589-1.369-2.709-1.369-2.711-.037-.544-2.617-5.586-3.487-7.75.073-1.516-2.649-5.645-3.508-5.686l-4.436-5.433a56.538,56.538,0,0,0-4.614-6.352c-.075-.148-4.349-5.172-5.573-8.087v0a15.186,15.186,0,0,0-1.369-3.038l-.657-.709h0a1.807,1.807,0,0,0-.722-1.336h0l-.009.015a9.725,9.725,0,0,0-1.37-2.7,46.428,46.428,0,0,0-3.494-7.452,36.171,36.171,0,0,0-2.821-6.02c.406-2.436-1.534-3.75-2.755-5.409h0q-.028-.312-.054-.623-.333-1.52-.665-3.041c-.42-.286.111-1.027-.378-1.279,0-.038.006-.077.011-.116a15.921,15.921,0,0,0-.955-2.661.287.287,0,0,1-.077-.3c-.261-.45-.188-1.061-.715-1.381q-.853-1.015-1.707-2.028a1.382,1.382,0,0,0-1.073-1.293h0l-.66-.38a30.8,30.8,0,0,1-4.786-1.746,8.96,8.96,0,0,0-2.5-3.34,4.65,4.65,0,0,0-3.5-2.677.328.328,0,0,0-.25-.055h0c-1.465-.839-2.532-2.243-4.21-2.78h0c-.258-.869-1.111-1.124-1.788-1.463a9.02,9.02,0,0,1-3.762-3.324,12.3,12.3,0,0,0-5.852-4.71c-1.21-.542-1.325-.123-1.467.828-.117.781-.017,1.729-1.084,2.067-.32,1.925.923,3.594.96,5.46h0c-.545,1.08-.287,2.843-2.372,2.609-2.159-.98-2.874.528-3.624,1.974a.249.249,0,0,0-.205.081h0a9.976,9.976,0,0,1-2.9.329c-1.07.048-1.091.453-.27,1.02h0l0,0a2.359,2.359,0,0,0,.716,1.67c.14.763.621,1.485.29,2.3l-.945.089-2.117-.036h0l0,0c-.926-.442-2.2-.23-2.761-1.36h0l-.008,0a3.884,3.884,0,0,0-1.337-2.065h0l.039-.014.629-1.268c1.043-1.225-.281-1.83-.741-2.662l-.662-.08a28.148,28.148,0,0,0-.413-7.633,1.98,1.98,0,0,0-2.38-.075,2.329,2.329,0,0,0-1.652,2.115c-.075,1.216-.4,2.391-.44,3.6l.009.018c-.967.563-.768,1.558-.577,2.266.272,1.007-.007,1.173-.921,1.122-1.1-.063-2.208.029-3.29-.11a2.927,2.927,0,0,0-3.575,2.1l-1.736,2.016-2.167,1.985-4.467,1.7c-.387.1-.78.176-1.162.288-1.9.554-2,.713-.643,2a3.39,3.39,0,0,1,1.09,3c-.354.632-.761,1.243-1.052,1.9a2.936,2.936,0,0,0,.839,3.8,1.371,1.371,0,0,0,.257.282l.143.1a4.848,4.848,0,0,0,1.5,1.144h0a17.473,17.473,0,0,0,1.355,1.251c1.032.776,2.2,1.418,2.62,2.738l1.676.038c.72.565.924,1.549,1.752,2.025a.47.47,0,0,0,.669-.009h.018c-.193.588.542.385.713.664.7.569,1.445,1.436,2.333,1.245,1.251-.269,2.374.157,3.555.148.093.21.186.422.279.632.966.71.944,2.175,2.179,2.68.8.69,1.948.071,2.766.693l.01.005a9.612,9.612,0,0,0,1.786,1.3h0c.426.435.294,1.194.867,1.542a.382.382,0,0,0,.164.478h-.007c.349.508.964.47,1.463.668,3.059.174,3.42.5,3.781,3.346a3.3,3.3,0,0,0,.29.748.319.319,0,0,0,.361.009c.166.737.878.926,1.4,1.307.686.378.447,1.03.532,1.6.051.338-.216.827.162,1.055,0,.016,0,.031,0,.047a13.846,13.846,0,0,1,.018,4.274,1.528,1.528,0,0,0,.073.422c-.884,1.255-1.491,2.551-.483,4.093.135.407.259.823.761.955h0a1.761,1.761,0,0,1,.011.311,2.837,2.837,0,0,1-.045,2.071l-.011.021a3.9,3.9,0,0,0,.424,4.679,2.377,2.377,0,0,0,2.023.033h0c.547-.287,1.249-.124,1.746-.56a5.123,5.123,0,0,1,2.083-.094l.336.338c1.425.942,2.111,2.457,3.1,3.74h0l.013-.009a3.12,3.12,0,0,1-.14,2.087,4.1,4.1,0,0,0,.1,3.976c.437,1.629.68,3.343-.865,4.473a2.749,2.749,0,0,0-1.146,2.9,15.45,15.45,0,0,1-.043,2.01,1.681,1.681,0,0,0-.018,2.069h0l0,.01.119.977-.053,1.684a.441.441,0,0,1,.044.23c.932.046,2.021,2.154,2.771-.2l-.021-.021h0l.385-.351c.21-.845.76-1.47,1.646-1.19,1.005.317,1.348-.284,1.823-.822.4-.236.634-.519.361-.948a.545.545,0,0,0,.116.024,3.755,3.755,0,0,1,4.292-.52c.054,1.037.617,1.437,1.7.955a8.3,8.3,0,0,1,2.654-.459c.494-.051,1.264.111,1.224-.729l.073,0,.171.088.158-.109c-.01-.082-.02-.164-.03-.246a1.112,1.112,0,0,0,.249-.262,1.97,1.97,0,0,0,1.108-.025,2.71,2.71,0,0,1,3.036,2.012,7.976,7.976,0,0,1,.009,1.992c-.065.983-.382,1.747.373,2.457.679.64.57-.985,1.3-1.076.516-.244.893-.206,2.012.406.779.426,1.554,1.329,1.865,1.462,1.949.832,2.217-.377,3.94-.366a8.312,8.312,0,0,1,3.856,1.787,2.192,2.192,0,0,1,.733,1.137c.082.485-.139,1.05-.042,1.2a2.545,2.545,0,0,0,1.861.321c.082,0,.162-.008.243-.01,3.083-.023,3.108-.021,3.386-3.119a2.036,2.036,0,0,1,.046-.277c.006-.026.012-.052.018-.079.183-.662.693-.848,1.409-.865h0c.812.474,1.631.936,2.433,1.426.278.17.626.588.856.318.792-.93,1.606-.2,2.4-.129.1.083.2.167.31.247a2.173,2.173,0,0,0,.48.157c.221.018.44.037.658.057,2.217.958,4.421,1.673,6.647-.46.508-.487,1.312-.3,1.99-.133.942.238,1.867.539,2.816.744,1.99.429,2.476.116,3.024-1.832.075-.267.172-.528.26-.791,1.073-1.461,2.645-1.42,4.236-1.321C-180.7,283.844-181.474,283.149-181.776,282.457Zm-105.063-76.132-.016-.013c0-.008.008-.013.011-.021l.028.036Zm17.3-8.469c.022-.01.044-.023.067-.036v.078C-269.492,197.885-269.51,197.87-269.534,197.856Zm4.245,7.468-.03,0,.03-.009Zm15.758,77.283c.02.111.04.215.059.306A.674.674,0,0,1-249.531,282.607Zm39.9-43.239,0-.016h0l.006,0Z" transform="translate(166.985 -1857.225)" fill="#4aa9f2" fill-rule="evenodd"/>
    <path id="chungbuk" data-name="chungbuk" d="M-207.824,331.3h0c-.859-.47-1.814-1.018-2.75-.6a4.557,4.557,0,0,1-3.891.023h0c.042-.7-1.281-1.305-1.412-1.4-.931-.829-1.4-.368-1.7.569-1.161,1.092-1.758.038-2.462-.607.028-.992.031-1.985.092-2.976.065-1.061.245-2.2-1.034-2.7-.878-.347-1.483.167-2.069.677h0c-.876.59-2.091.353-3.674.711-1.7.387-3.226.841-3.542.026a1.764,1.764,0,0,0-2.494-.8h0c-.5.184-.418.628-.484,1.007.022.128.044.257.065.385h0c-.578,1.152-1.631,1.1-2.7,1-.554.252-.484.889-.833,1.268l-.01.038c0,.223,0,.445.007.668l-.7.648a4.927,4.927,0,0,1-3.409.014h0l-.013-.017h-.066c.307-.639-.332-.91-.709-1.284-.589-.757-.988-.154-1.192.26A4.061,4.061,0,0,1-247,330.737a1.521,1.521,0,0,0-1.519.563,6.974,6.974,0,0,1-2.8,2.668c-1.167.366-1.85,1.359-2.792,2.017h0a4.32,4.32,0,0,0-3.446,2.085c-.442.57-.859,1.16-1.331,1.706-1.12,1.3-1,1.943.6,2.989l3.447,2.121a8.525,8.525,0,0,0,.209,1.149c.732,2.258.488,3.885-1.769,4.978-.25-.01-2.682,1.2-2.6,1.812h0c-1.192,1.143-.912,2.283.007,3.423.073,1.094-.311,2.4,1.376,2.734.965.525,1.188,1.53,1.405,1.656h0c-.456,1.581-.054,2.68,1.782,2.972h0c.589.6,1.067,1.433,1.788,1.746,2.085.9,2.109,2.542,1.975,4.317h0l.015.008c-1.08.992-2.931,1.409-2.691,3.386.937.843,2.231.9,3.317,1.411,1.375,2.169,2.7,4.356,2.948,6.974h0c-.02.469.38,1.75.595,1.763,1.48,1.4,3.463,1.651,5.322,2.18a2.82,2.82,0,0,0,2.361-.614c.674-.664.428-2.079,2.641-3.065a13.431,13.431,0,0,0,4.287-2.918c1.333-2.136,1.154-2.689-1.275-3.476a9.182,9.182,0,0,1-2.639-1.5,13.543,13.543,0,0,1-2.937-3.431.221.221,0,0,1-.1-.264c-.146-1.517-.55-3.034-.007-4.553.045-.312.091-.626.136-.938.327-.624.2-1.379.6-1.981l.01-.022a.82.82,0,0,0,.166-.635c.444.03.235-.565.53-.677.1-1.209,1.538-2.49-.167-3.6a4.039,4.039,0,0,1-1.9-4.165c.87-1.1,2.194-1.333,3.45-1.7,1.129-.39.943-1.558,1.458-2.311h0a2.794,2.794,0,0,0,1.355-.675c1.582-.031,2.434-.774,2.4-2.347a1.856,1.856,0,0,1,1.042-1.763c2.346.109,4.541-.242,6.293-1.94h0a8.507,8.507,0,0,1,3.434-.02c1.681.355,3.389.628,5.025,1.125a1.584,1.584,0,0,0,1.952-.5c.884-1.938-.208-3.957.255-5.91a.934.934,0,0,0-.134-.217l1.959-1.3.7.01c1.088-.8,1.847-2.105,3.458-2.092C-205.8,332.873-206.1,332.088-207.824,331.3Zm-51.072,21.64h0l-.1-.111.106.111Zm9.669,21.492,0-.009,0,.008Z" transform="translate(157.182 -1900.639)" fill="#ddebf5" fill-rule="evenodd"/>
    <path id="gyeongbuk" data-name="gyeongbuk" d="M-150.174,387.372l-1.722-.36-2.783-.7-3.087-3.15a6.9,6.9,0,0,1-.328-3.443c.778-3.792.074-7.607.3-11.4a1.528,1.528,0,0,0-.382-1.238q-.014-1.173-.026-2.347c-.3-3.112,1.43-5.771,2.065-8.676a18.586,18.586,0,0,1-.723-2.378c-.5-1.689-.047-3.526-.914-5.142a2.682,2.682,0,0,0-.976-1.7q-.361-.511-.723-1.021a8.06,8.06,0,0,1-1.113-4.3c-.031-2.491-.258-4.981-.4-7.471q-.325-.665-.65-1.328c-.025-.109-.049-.217-.073-.327.076-.481-.152-.69-.638-.665l-.018-.008-.658-.342c-.588-.187-1.182-.438-1.7.146a.684.684,0,0,0,.016.2l-.023.014c-1.575.039-1.336,1.321-1.661,2.217-.684.221-.476,1.2-1.211,1.37a1.2,1.2,0,0,1-.107.168,10.734,10.734,0,0,1-5.211-.351c-.519-.123-1.259-.686-1.587-.258-1.4,1.83-3.426,1.127-5.211,1.39l-.593-.145a1.542,1.542,0,0,0-.006-.283c-.507-.634-1.227-.512-1.915-.5a1.581,1.581,0,0,1-.514.226c-.846-.421-1.717-1.206-2.422.366-.124.278-.5.057-.73-.12a3.454,3.454,0,0,0-1.266-.856.88.88,0,0,0-.246-.311c-.052,0-.1.006-.145.008a3.417,3.417,0,0,0-1.479-.857c-.558,1.21.061,2.719-.982,3.741a2.854,2.854,0,0,1-.408-.061,1.766,1.766,0,0,0-1.418.159,1.782,1.782,0,0,1-.1.164c-2.074.023-4.1-.716-6.2-.328-.964-.072-1.352.608-1.761,1.262l-.68.474-1.071.884a.41.41,0,0,0-.33.049c-1.819.358-1.1,1.743-.91,2.616a6.208,6.208,0,0,1-.474,4.45c-1.376,1.815-2.807.228-4.215.064l-1.963-.185c-.123-.111-.241-.232-.368-.338a4.3,4.3,0,0,0-4.844-.221,10.159,10.159,0,0,1-4.261,1.259c-.8.063-1.625.321-1.683,1.155-.112,1.6-1.149,2.474-2.315,3.322a2.49,2.49,0,0,1-.274.377c-.792.1-1.58.2-1.676,1.307-.316,1.456-1.554,1.73-2.771,2.031a2.638,2.638,0,0,0-1.458.634h0c-.594,1.413.641,2.163,1.47,2.33,1.209.243,1.1.865,1.1,1.609,0,.826-.04,1.652-.064,2.478h0l-1.08,1.692a4.256,4.256,0,0,0-.619,1.466,6.924,6.924,0,0,0-.052,6.3c0,.109,0,.217.008.325l1.355,1.091a4.348,4.348,0,0,0,1.233,1.2c.006.059.008.118.019.179a.9.9,0,0,0,.514.5c.09.013.176.033.262.051a4.367,4.367,0,0,0,2,.95q.249.175.492.362c1.545.857,1.34,2.318,1.36,3.7a2.549,2.549,0,0,1,.07.474c-1.716,2.565-5.816,3.752-6.738,5.315s-.028,3.414.766,5.157q-.142.954-.283,1.91l-.372.34c-.184.455-.363.91.1,1.318l.105-.023.105.025c.283-.389.753-.134,1.1-.3l1.35.1,1.757,1.622a5.079,5.079,0,0,0,3.993,1.328,4.084,4.084,0,0,1,3.946,1.69h0a27.442,27.442,0,0,1,1.083,5.87c.178,1.445.895,1.883,2.27,1.87,1.02-.01,2.141-.329,3.054.251,2.237,1.42,4.448,1.061,6.7.116a3.234,3.234,0,0,1,4.117.981,5.831,5.831,0,0,0,4.987,2.152c.907-.016,3.226-.451,5.495-.591a45.065,45.065,0,0,0,4.852-.176c2.253-.559,4.222-1.31,4.694,1.262.113.616-.1,1.62.471,1.995,1.425.934,5.439,2.941,8.168,4.5a28.856,28.856,0,0,0,3.986,2.141c1.395.472,2.543.051,5.317-2.591a4.637,4.637,0,0,0,1.407-2.416c.349-1.558.32-3.359,1.527-4.516,1.819-1.743,2.246-3.876,2.513-6.138a81.417,81.417,0,0,0,3.475-9.764.356.356,0,0,0,.1-.182,21.724,21.724,0,0,0,1.8-5.381A1.385,1.385,0,0,0-150.174,387.372Z" transform="translate(148.218 -1903.068)" fill="#6894fc" fill-rule="evenodd"/>
    <path id="gyeongnam" data-name="gyeongnam" d="M-182.775,445.489c-1.383-.727-1.116-2.621-1.223-3.224-.083-.472-.373-.947-.924-.75-2.409.865-4.891.377-7.341.491-2.876.135-5.731,1.025-8.626.163a7.453,7.453,0,0,1-2.775-2.091c-1.4-1.822-2.795-.492-4.19.009a9.8,9.8,0,0,1-6.154-.7h0c-.529-.5-1.2-.291-1.812-.311-3.6-.116-3.666-.224-4.318-3.576-.271-1.395.1-2.934-.908-4.178-.028-.195-.056-.39-.084-.584a1.373,1.373,0,0,0-1.333-1.072,15.494,15.494,0,0,0-3.866-.241h0l-.6-.146a1.081,1.081,0,0,0-1.115-.584c-.622-.388-.893-1.158-1.639-1.413h0c-.353-.931-1.132-.565-1.795-.555a9.077,9.077,0,0,1-1.38.534c-2.641.564-2.644.552-2.865,3.312a5.7,5.7,0,0,1-3.382,2.066c-1.8.413-3.327,1.01-3.279,3.305a8.626,8.626,0,0,1-.969,2.794,2.706,2.706,0,0,0-1.036,1.309c-1.278.983-.587,2,.068,2.875a20.2,20.2,0,0,1,1.958,3.3,11.719,11.719,0,0,1-.393,4.694l.092.009.086-.032a2.271,2.271,0,0,0-.7,2.663,4.238,4.238,0,0,1,.585,2.093c-.058,1.574,1.281,2.318,2.124,3.356,1.084,1.831,2.579,3.5,2.3,5.853-.045.381.314.806.486,1.212-.061.834-.226,1.737.586,2.316,1.932,1.378,3.059,3.426,4.638,5.094l0,.012c1.344,2.661,1.969,2.773,4.265.746a1.514,1.514,0,0,0,.245-.433l.015.007,1.389-.707c.035-.19.071-.381.105-.571h0l1.008-.52.975.444a1.518,1.518,0,0,0,.656,1.1h0a.5.5,0,0,0-.059.207h0c-.435.336-.2.65.035.963h0a4.607,4.607,0,0,0-1.041,2.127l-.264.378h0c-.905.72-2.11,1.374-1.368,2.767.589,1.105,2.98,1.558,4.16.934a1.692,1.692,0,0,0,1.42-1.7h0a1.844,1.844,0,0,0,.629-1.72l.71-1a4.24,4.24,0,0,1,3.407-2.644,27.823,27.823,0,0,1,6.98-.626,2.112,2.112,0,0,0,.667,1.29,2.46,2.46,0,0,0,1.08,1.657,1.274,1.274,0,0,0,1.753.837,2.991,2.991,0,0,1,2.893.45,1.99,1.99,0,0,0,2.75-.245,2.3,2.3,0,0,0,2.051-1.385l.677-.684a4.98,4.98,0,0,1,1.443-1.292c.082.083.183.064.3-.055l.648-.03c.679-.3,1.592.046,2.1-.722a.6.6,0,0,1,.36-.608c.641-.414.411-1.161.7-1.712a1.4,1.4,0,0,0-1.769-.908,11.455,11.455,0,0,1-3.731.2h0c-.2-.847-1.05-1.273-1.383-2.031-.12-.826-.746-.815-1.41-.877-1.314-.122-2.034-.7-1.431-2.091l1.679-1.353a6.493,6.493,0,0,1,4.5-1.208,9.59,9.59,0,0,0,1.853-.063c1.144.534,2.858,1.348,3.109,1.528,2.728,1.96,5.495,1.223,8.274.154a2.974,2.974,0,0,0,2.761-1.314l2.008-1.438a11.19,11.19,0,0,1,4.594-2.575c.442-.129.878-.264.95-.8l.708-.707c.679-.352.708-.989.755-1.618a13.66,13.66,0,0,1,.66-1.942,1.556,1.556,0,0,0-1.014-2.089s-2.153-1.1-4.5-2.363A69.458,69.458,0,0,0-182.775,445.489Z" transform="translate(152.856 -1933.294)" fill="#7195be" fill-rule="evenodd"/>
  </g>
</svg>
